<?xml version="1.0" encoding="iso-8859-1"?>
<!-- Uploaded to: SVG Repo, www.svgrepo.com, Generator: SVG Repo Mixer Tools -->
<svg height="800px" width="800px" version="1.1" id="Layer_1" xmlns="http://www.w3.org/2000/svg" xmlns:xlink="http://www.w3.org/1999/xlink" 
	 viewBox="0 0 512 512" xml:space="preserve">
<g>
	<path style="fill:#2D527C;" d="M217.79,255.951c-70.566,0-127.976-57.409-127.976-127.976S147.224,0,217.79,0
		s127.976,57.409,127.976,127.976S288.357,255.951,217.79,255.951z M217.79,29.095c-54.523,0-98.881,44.358-98.881,98.881
		s44.358,98.881,98.881,98.881s98.881-44.358,98.881-98.881S272.313,29.095,217.79,29.095z"/>
	<path style="fill:#2D527C;" d="M217.79,204.837c-14.601,0-29.201-5.557-40.317-16.673c-5.681-5.681-5.681-14.892,0-20.575
		c5.681-5.681,14.892-5.681,20.575,0c10.886,10.886,28.599,10.886,39.486,0c5.681-5.681,14.892-5.681,20.575,0
		c5.681,5.681,5.681,14.892,0,20.575C246.991,199.278,232.391,204.837,217.79,204.837z"/>
	<path style="fill:#2D527C;" d="M362.556,436.073c-8.035,0-14.548-6.513-14.548-14.548c0-55.001-32.953-103.903-83.953-124.582
		c-7.445-3.019-11.033-11.503-8.014-18.948c3.02-7.445,11.503-11.031,18.948-8.014c62.032,25.154,102.115,84.639,102.115,151.545
		C377.103,429.56,370.59,436.073,362.556,436.073z"/>
	<path style="fill:#2D527C;" d="M269.71,512H115.032c-31.186,0-56.555-25.369-56.555-56.555v-33.919
		c0-66.907,40.083-126.392,102.115-151.545c7.448-3.017,15.93,0.57,18.948,8.014c3.019,7.445-0.569,15.93-8.014,18.948
		c-51.001,20.679-83.954,69.582-83.954,124.582v33.919c0,15.141,12.319,27.46,27.46,27.46H269.71
		c8.035,0,14.548,6.513,14.548,14.548S277.745,512,269.71,512z"/>
</g>
<path style="fill:#CEE8FA;" d="M307.351,336.632c23.963,0,34.715,13.432,38.945,21.321c0.531,0.991,1.973,0.989,2.504-0.001
	c4.216-7.889,14.908-21.318,38.87-21.318c27.296,0,51.306,18.633,51.306,52.658c0,13.768-2.806,25.564-10.594,38.727
	c-15.87,26.826-68.151,61.602-78.89,68.455c-1.187,0.758-2.691,0.759-3.88,0.004c-10.748-6.82-63.039-41.424-79.033-68.459
	c-7.787-13.164-10.575-24.959-10.575-38.727C256.005,355.266,280.055,336.632,307.351,336.632z"/>
<path style="fill:#2D527C;" d="M347.549,511.59c-3.449,0-6.813-0.978-9.729-2.828c-10.794-6.849-65.56-42.573-83.76-73.337
	c-8.715-14.731-12.601-28.96-12.601-46.135c0-44.121,33.15-67.207,65.893-67.207c19.03,0,31.859,6.869,40.183,14.332
	c8.31-7.463,21.125-14.332,40.134-14.332c32.726,0,65.855,23.086,65.855,67.207c0,17.153-3.893,31.382-12.621,46.135
	c-18.07,30.546-72.797,66.429-83.586,73.311C354.395,510.603,351.015,511.59,347.549,511.59z M307.351,351.18
	c-16.976,0-36.798,9.981-36.798,38.112c0,11.984,2.476,21.059,8.547,31.321c11.219,18.966,46.827,45.463,68.433,59.77
	c21.605-14.377,57.191-40.944,68.328-59.77c6.085-10.285,8.567-19.36,8.567-31.321c0-28.129-19.802-38.112-36.76-38.112
	c-15.502,0-22.716,7.411-26.039,13.628c-2.78,5.204-8.177,8.436-14.083,8.436c-5.895,0-11.286-3.224-14.069-8.411
	C330.137,358.6,322.895,351.18,307.351,351.18z"/>
</svg>